<svg xmlns="http://www.w3.org/2000/svg" width="30" height="30" viewBox="0 0 30 30" fill="none">
  <g clip-path="url(#clip0_20_1962)">
    <path d="M13.7032 20.0505C12.2771 19.7502 11.2264 19.1826 10.5509 18.3476C9.87536 17.5126 9.53761 16.3446 9.53761 14.8435C9.51884 14.2055 9.51415 13.5675 9.52353 12.9296C9.53292 12.2916 9.53761 11.6442 9.53761 10.9875H20.9648C20.9836 11.3252 21.0023 11.6864 21.0211 12.0711C21.0399 12.4558 21.0493 12.8451 21.0493 13.2392C21.0493 13.7646 21.0352 14.2852 21.007 14.8013C20.9789 15.3173 20.9461 15.8286 20.9085 16.3352L20.9367 16.1945C20.7678 17.3578 20.2987 18.2491 19.5294 18.8683C18.7601 19.4875 17.7937 19.891 16.6304 20.0786C16.6304 20.1537 16.6257 20.2428 16.6163 20.346C16.6069 20.4492 16.6022 20.5571 16.6022 20.6697C16.6022 21.4015 16.6867 22.1051 16.8555 22.7806C17.0244 23.4561 17.2683 24.0941 17.5873 24.6945L17.5592 24.6664C17.7468 24.9854 18.0001 25.2434 18.3191 25.4404C18.6381 25.6374 18.9852 25.7359 19.3605 25.7359C19.5294 25.7359 19.6936 25.7172 19.8531 25.6796C20.0126 25.6421 20.1674 25.5858 20.3175 25.5108H20.2893C21.0774 25.2105 21.8186 24.8165 22.5128 24.3286C23.1883 23.8595 23.8029 23.3154 24.3564 22.6962C24.9099 22.077 25.3837 21.4015 25.7778 20.6697C26.1718 19.9379 26.472 19.1686 26.6784 18.3617V18.2773C26.8285 17.7894 26.9458 17.2687 27.0303 16.7152C27.1147 16.1616 27.1569 15.5847 27.1569 14.9842C27.1569 13.3517 26.8473 11.8131 26.2281 10.3683C25.6089 8.92347 24.7598 7.66628 23.6809 6.59674C22.602 5.5272 21.3401 4.67344 19.8953 4.03547C18.4505 3.41626 16.9118 3.10666 15.2794 3.10666C13.6469 3.10666 12.1083 3.41626 10.6634 4.03547C9.21862 4.67344 7.95675 5.5272 6.87782 6.59674C5.7989 7.66628 4.94983 8.92347 4.33063 10.3683C3.71142 11.8131 3.40181 13.3517 3.40181 14.9842C3.40181 16.2789 3.59883 17.5079 3.99288 18.6713C4.36815 19.8347 4.90292 20.9042 5.59719 21.8799C6.29145 22.8557 7.11706 23.7094 8.07402 24.4412C9.03098 25.173 10.0818 25.7453 11.2264 26.1581L11.3108 26.1863C11.7611 26.3551 12.0895 26.5756 12.2959 26.8477C12.5023 27.1198 12.5867 27.4247 12.5492 27.7624C12.5117 28.1377 12.3569 28.4473 12.0848 28.6912C11.8127 28.9352 11.4984 29.0571 11.1419 29.0571C11.0293 29.0571 10.9168 29.0431 10.8042 29.0149C10.6916 28.9868 10.5884 28.9445 10.4946 28.8883C9.3312 28.4942 8.2429 27.9688 7.22965 27.3121C6.2164 26.6741 5.30166 25.9189 4.48543 25.0463C3.6692 24.1738 2.97024 23.2122 2.38856 22.1614C1.82565 21.1106 1.39408 19.9942 1.09385 18.812L1.06571 18.7276C0.896832 18.1459 0.770176 17.5361 0.685738 16.8981C0.601301 16.2601 0.559082 15.6034 0.559082 14.9279C0.559082 12.9014 0.943742 10.9875 1.71306 9.18616C2.48238 7.40359 3.53316 5.84619 4.8654 4.51395C6.19763 3.18171 7.75504 2.13093 9.53761 1.36161C11.3389 0.592295 13.2529 0.207634 15.2794 0.207634C17.0995 0.207634 18.8257 0.517239 20.4582 1.13645C22.0719 1.75566 23.5214 2.61411 24.8067 3.71179C26.0921 4.80948 27.1663 6.0995 28.0294 7.58185C28.8926 9.08296 29.4742 10.6967 29.7745 12.4229L29.8026 12.5074C29.8589 12.8826 29.9058 13.2861 29.9433 13.7176C29.9809 14.1492 29.9996 14.5808 29.9996 15.0124C29.9996 16.3446 29.8308 17.6205 29.493 18.8402C29.1553 20.0598 28.6768 21.2044 28.0576 22.274C27.4384 23.3435 26.6878 24.3192 25.8059 25.2011C24.924 26.0643 23.9577 26.8148 22.9069 27.4528L22.8224 27.481C21.7904 28.0439 20.8053 28.3722 19.8671 28.4661C18.9289 28.5599 18.0752 28.4332 17.3059 28.0861C16.5365 27.739 15.8798 27.1807 15.3357 26.4114C14.7727 25.6609 14.3787 24.7039 14.1535 23.5405C14.0409 22.9776 13.9565 22.41 13.9002 21.8377C13.8439 21.2654 13.7782 20.6697 13.7032 20.0505ZM19.1072 10.0024H17.0525C17.0525 9.43947 17.0479 8.87656 17.0385 8.31364C17.0291 7.75072 17.0432 7.18781 17.0807 6.62489C17.0995 6.32467 17.2214 6.14172 17.4466 6.07604C17.6718 6.01037 17.9063 5.97753 18.1502 5.97753C18.3754 5.97753 18.5865 6.01975 18.7835 6.10419C18.9805 6.18863 19.0791 6.37158 19.0791 6.65303C19.1166 7.19719 19.1307 7.75072 19.1213 8.31364C19.1119 8.87656 19.1072 9.43947 19.1072 10.0024ZM13.5343 10.0024H11.4515C11.4515 9.45824 11.4468 8.90939 11.4375 8.35586C11.4281 7.80232 11.4328 7.25348 11.4515 6.70933C11.4703 6.4091 11.5829 6.21208 11.7893 6.11826C11.9957 6.02444 12.2302 5.97753 12.4929 5.97753C12.7744 5.97753 13.0136 6.03382 13.2106 6.14641C13.4077 6.25899 13.5062 6.46539 13.5062 6.76562C13.5249 7.29101 13.5343 7.82578 13.5343 8.36993C13.5343 8.91408 13.5343 9.45824 13.5343 10.0024Z" fill="black"/>
  </g>
  <defs>
    <clipPath id="clip0_20_1962">
      <rect width="29.4511" height="28.8214" fill="white" transform="matrix(1 0 0 -1 0.553711 29.0286)"/>
    </clipPath>
  </defs>
</svg>