<svg xmlns="http://www.w3.org/2000/svg" width="30" height="29" viewBox="0 0 30 29" fill="none">
  <g clip-path="url(#clip0_20_2019)">
    <path d="M2.02044 5.45983C2.0392 4.31527 2.45668 3.33489 3.27289 2.51869C4.08909 1.70249 5.06947 1.29439 6.21403 1.29439C6.21403 1.29439 6.22341 1.29439 6.24217 1.29439C7.31168 1.29439 8.23108 1.67903 9.00037 2.44833C9.76967 3.21762 10.1543 4.1464 10.1543 5.23467C10.1543 5.25344 10.1543 5.27689 10.1543 5.30503C10.1543 5.33318 10.1543 5.35663 10.1543 5.3754C10.1356 6.51996 9.71807 7.49096 8.90187 8.28839C8.08566 9.08583 7.10528 9.48455 5.96072 9.48455C5.96072 9.48455 5.95603 9.48455 5.94665 9.48455C5.93727 9.48455 5.93258 9.48455 5.93258 9.48455C4.84431 9.48455 3.92022 9.1046 3.16031 8.34468C2.40039 7.58477 2.02044 6.66068 2.02044 5.57241C2.02044 5.55365 2.02044 5.53489 2.02044 5.51612C2.02044 5.49736 2.02044 5.4786 2.02044 5.45983ZM15.2485 24.7391C15.2298 25.8837 14.817 26.8593 14.0102 27.6662C13.2033 28.473 12.237 28.8858 11.1112 28.9045C11.1112 28.9045 11.1066 28.9045 11.0972 28.9045C11.0878 28.9045 11.0831 28.9045 11.0831 28.9045C9.99483 28.9045 9.06135 28.5199 8.28268 27.7506C7.504 26.9813 7.11467 26.0431 7.11467 24.9361C7.11467 24.9361 7.11467 24.9314 7.11467 24.922C7.11467 24.9127 7.11467 24.8986 7.11467 24.8798C7.11467 23.7353 7.52277 22.7549 8.33897 21.9387C9.15517 21.1225 10.1449 20.705 11.3083 20.6862C12.3965 20.6862 13.3253 21.0756 14.0946 21.8542C14.8639 22.6329 15.2485 23.5664 15.2485 24.6547C15.2485 24.6734 15.2485 24.6922 15.2485 24.7109C15.2485 24.7297 15.2485 24.7485 15.2485 24.7672V24.7391ZM25.4651 14.3255C25.4651 14.3255 25.4605 14.3255 25.4511 14.3255C25.4417 14.3255 25.437 14.3255 25.437 14.3255C24.3487 14.3255 23.4153 13.9361 22.6366 13.1575C21.8579 12.3788 21.4686 11.4453 21.4686 10.357C21.4686 10.357 21.4686 10.3524 21.4686 10.343C21.4686 10.3336 21.4686 10.3195 21.4686 10.3008C21.4873 9.17496 21.9001 8.20865 22.7069 7.40183C23.5138 6.59501 24.4895 6.18222 25.634 6.16345C25.634 6.16345 25.6434 6.16345 25.6622 6.16345C25.6809 6.16345 25.6903 6.16345 25.6903 6.16345C26.7786 6.16345 27.7074 6.5481 28.4767 7.3174C29.2459 8.08669 29.6306 9.01547 29.6306 10.1037C29.6306 10.1037 29.6306 10.1084 29.6306 10.1178C29.6306 10.1272 29.6306 10.1413 29.6306 10.16C29.6306 11.3046 29.2225 12.285 28.4063 13.1012C27.5901 13.9174 26.6097 14.3255 25.4651 14.3255ZM1.99229 8.55577L4.89122 10.4133C4.57224 11.4266 4.39399 12.421 4.35646 13.3967C4.30017 14.3536 4.3893 15.2824 4.62384 16.183C4.85838 17.0837 5.22896 17.9468 5.73556 18.7724C6.24217 19.5792 6.88951 20.3579 7.67756 21.1084L6.12959 24.2325C5.09761 23.5758 4.16883 22.6845 3.34325 21.5587C2.53643 20.4329 1.91724 19.1664 1.48568 17.7592C1.05413 16.3519 0.857113 14.8509 0.89464 13.256C0.95093 11.6799 1.31681 10.1131 1.99229 8.55577ZM11.1112 4.13702L9.22553 1.29439C10.3701 0.69396 11.6554 0.318695 13.0814 0.168589C14.5074 -0.00028038 15.9475 0.0700817 17.4016 0.379675C18.8558 0.68927 20.249 1.2381 21.5811 2.02615C22.9133 2.83297 24.0391 3.88372 24.9585 5.17838L21.7782 6.7545C21.1402 6.06026 20.4131 5.46452 19.5969 4.9673C18.7807 4.47007 17.9035 4.09949 16.9654 3.85557L16.8809 3.82743C16.5244 3.75237 16.1445 3.69139 15.7411 3.64449C15.3377 3.59758 14.9296 3.57412 14.5168 3.57412C13.9164 3.57412 13.3253 3.62572 12.7436 3.72892C12.162 3.83212 11.5991 3.97753 11.055 4.16517L11.1112 4.13702ZM24.0579 15.198L27.4916 14.9447C27.3415 16.502 26.9005 17.9656 26.1688 19.3353C25.437 20.7238 24.527 21.9481 23.4387 23.0082C22.3504 24.0683 21.1402 24.9173 19.808 25.5553C18.4758 26.1932 17.1343 26.5591 15.7833 26.6529C15.8396 26.409 15.8959 26.1463 15.9522 25.8649C16.0085 25.5834 16.0554 25.302 16.0929 25.0205V24.9361C16.0929 24.9173 16.0929 24.8892 16.0929 24.8517C16.0929 24.8141 16.0929 24.786 16.0929 24.7672C16.0929 24.5046 16.0882 24.2419 16.0788 23.9792C16.0694 23.7165 16.046 23.4538 16.0085 23.1911V23.2474C17.0217 23.0223 17.9692 22.6658 18.8511 22.1779C19.733 21.6901 20.521 21.099 21.2153 20.4048C21.9095 19.7105 22.5005 18.9319 22.9884 18.0688C23.4762 17.1869 23.8327 16.2487 24.0579 15.2543V15.198Z" fill="black"/>
  </g>
  <defs>
    <clipPath id="clip0_20_2019">
      <rect width="28.736" height="28.8214" fill="white" transform="matrix(1 0 0 -1 0.89502 28.905)"/>
    </clipPath>
  </defs>
</svg>