<svg xmlns="http://www.w3.org/2000/svg" width="29" height="30" viewBox="0 0 29 30" fill="none">
  <g clip-path="url(#clip0_20_1976)">
    <path d="M16.1192 16.9821C15.2748 14.6929 14.421 12.3944 13.5579 10.0864C13.3327 9.4672 12.9434 8.95588 12.3898 8.55246C11.8363 8.14903 11.2124 7.94732 10.5181 7.94732C10.1804 7.94732 9.83795 7.94732 9.49082 7.94732C9.14369 7.94732 8.80125 7.94732 8.4635 7.94732C8.16327 7.94732 7.87713 7.98485 7.60505 8.05991C7.33297 8.13496 7.07497 8.24755 6.83104 8.39766H6.85918C6.61525 8.529 6.3854 8.6885 6.16961 8.87614C5.95383 9.06377 5.7615 9.2608 5.59262 9.4672C5.7052 9.56102 6.11801 9.90815 6.83104 10.5086C7.56283 11.0903 8.44942 11.7752 9.49082 12.5632C10.5322 13.3513 11.644 14.1488 12.8261 14.9556C14.0082 15.7625 15.1059 16.438 16.1192 16.9821ZM28.3063 21.6262C27.931 21.7388 27.537 21.8232 27.1242 21.8795C26.7114 21.9358 26.2798 21.964 25.8295 21.964C25.7544 21.964 25.6794 21.964 25.6043 21.964C25.5293 21.964 25.4542 21.964 25.3792 21.964H25.4073C24.6005 21.9077 23.8217 21.8138 23.0712 21.6825C22.3206 21.5512 21.5888 21.3823 20.8758 21.1759L21.0165 21.204C20.7539 21.1477 20.5052 21.0821 20.2707 21.007C20.0361 20.9319 19.8063 20.8475 19.5811 20.7537L19.6655 20.7818C19.4216 20.6692 19.1918 20.552 18.976 20.43C18.7602 20.308 18.5585 20.1908 18.3708 20.0782L18.4271 20.1063C18.3708 20.0688 18.3145 20.0407 18.2583 20.0219C18.202 20.0031 18.1363 19.9937 18.0612 19.9937C18.0425 19.9937 18.019 19.9937 17.9909 19.9937C17.9627 19.9937 17.9393 20.0031 17.9205 20.0219V19.9937C17.9205 20.0125 17.9205 20.0219 17.9205 20.0219C17.9017 20.0219 17.883 20.0172 17.8642 20.0078C17.8454 19.9984 17.8267 19.9844 17.8079 19.9656C17.5265 19.7592 17.245 19.5528 16.9635 19.3464C16.6821 19.14 16.3912 18.9336 16.091 18.7272V18.699L16.0347 18.7553C16.0347 18.7553 15.5281 18.4082 14.5149 17.7139C13.4828 17.0197 12.3148 16.2081 11.0107 15.2793C9.70661 14.3505 8.43535 13.4264 7.19693 12.507C5.97728 11.5875 5.16105 10.8933 4.74825 10.4242H4.7201C4.43864 10.2553 4.18533 10.063 3.96016 9.84717C3.73499 9.63138 3.53797 9.39214 3.3691 9.12945V9.1013C3.29404 8.98872 3.22368 8.87614 3.158 8.76355C3.09233 8.65097 3.03135 8.54777 2.97506 8.45395V8.48209C2.88124 8.31322 2.74989 8.17718 2.58102 8.07398C2.41214 7.97078 2.2245 7.91918 2.0181 7.91918C1.71788 7.91918 1.45987 8.02707 1.24409 8.24286C1.0283 8.45864 0.92041 8.71664 0.92041 9.01686C0.92041 9.12945 0.934483 9.24203 0.962629 9.35462C0.990775 9.4672 1.04238 9.56102 1.11743 9.63607H1.08929C1.82108 10.7994 2.56225 11.9628 3.31281 13.1262C3.40663 13.295 3.53797 13.4311 3.70685 13.5343C3.87572 13.6375 4.05398 13.6891 4.24162 13.6891C4.42926 13.6891 4.59813 13.6515 4.74825 13.5765C4.89836 13.5014 5.02032 13.3982 5.11414 13.2669C5.20796 13.1731 5.2924 13.0792 5.36745 12.9854C5.44251 12.8916 5.52695 12.7978 5.62077 12.704L5.64891 12.7321C5.57386 12.9385 5.17982 13.6938 4.46679 14.9979C3.75376 16.3019 3.23775 17.4512 2.91877 18.4457C2.84371 18.821 3.06419 19.1588 3.58019 19.459C4.0962 19.7592 4.36359 19.9187 4.38235 19.9375C4.83268 20.1626 5.28771 20.3737 5.74742 20.5707C6.20714 20.7678 6.55896 20.9226 6.80289 21.0351C6.87795 21.0727 6.93424 21.1102 6.97177 21.1477C7.0093 21.1853 7.02806 21.2415 7.02806 21.3166C7.04682 21.5981 7.06559 21.8795 7.08435 22.161C7.10311 22.4424 7.12188 22.7239 7.14064 23.0054C7.25323 24.5065 7.35643 25.9982 7.45025 27.4805C7.46901 27.7245 7.48777 27.9684 7.50654 28.2123C7.5253 28.4563 7.54407 28.6908 7.56283 28.916H11.9817C11.9817 28.8972 11.9817 28.8738 11.9817 28.8456C11.9817 28.8175 11.9817 28.794 11.9817 28.7753L12.1787 26.1858C12.2913 24.5346 12.4039 22.8928 12.5165 21.2603C12.5165 21.204 12.5306 21.1618 12.5587 21.1337C12.5869 21.1055 12.6291 21.0821 12.6854 21.0633C13.0982 20.7818 13.5673 20.5004 14.0927 20.2189C14.6181 19.9375 14.9746 19.7404 15.1622 19.6279L16.8791 20.8944C16.9166 20.9132 16.9495 20.9366 16.9776 20.9648C17.0058 20.9929 17.0105 21.0351 16.9917 21.0914C16.9917 21.1102 16.9917 21.1337 16.9917 21.1618C16.9917 21.1899 16.9917 21.2134 16.9917 21.2322C16.9917 21.326 17.0151 21.4151 17.0621 21.4995C17.109 21.584 17.1699 21.6637 17.245 21.7388C17.3951 21.8701 17.5499 22.0109 17.7094 22.161C17.8689 22.3111 18.0237 22.4612 18.1738 22.6113C18.1926 22.6301 18.2113 22.6535 18.2301 22.6817C18.2489 22.7098 18.2583 22.7333 18.2583 22.752H18.2864C18.2864 22.8459 18.2911 22.935 18.3005 23.0194C18.3099 23.1039 18.3239 23.1836 18.3427 23.2587C18.4553 23.9529 18.6523 24.605 18.9338 25.2148C19.2152 25.8246 19.5623 26.3829 19.9751 26.8895V26.8613C20.5193 27.4993 21.1713 28.0106 21.9313 28.3953C22.6912 28.7799 23.5028 28.991 24.3659 29.0286H24.394C24.4128 29.0286 24.441 29.0145 24.4785 28.9863C24.516 28.9582 24.5442 28.9347 24.5629 28.916C25.8576 26.5142 27.1523 24.1218 28.4471 21.7388C28.4658 21.72 28.4799 21.6966 28.4893 21.6684C28.4986 21.6403 28.5127 21.6074 28.5315 21.5699C28.494 21.5887 28.4564 21.5981 28.4189 21.5981C28.3814 21.5981 28.3438 21.6074 28.3063 21.6262ZM9.75821 6.84963C10.6776 6.83087 11.461 6.5025 12.1084 5.86453C12.7557 5.22656 13.0794 4.44785 13.0794 3.52843C13.0794 2.60899 12.7557 1.8256 12.1084 1.17825C11.461 0.530891 10.6776 0.207214 9.75821 0.207214C8.83878 0.207214 8.05538 0.530891 7.40803 1.17825C6.76067 1.8256 6.437 2.60899 6.437 3.52843C6.45576 4.44785 6.78882 5.22656 7.43617 5.86453C8.08353 6.5025 8.85754 6.83087 9.75821 6.84963Z" fill="black"/>
  </g>
  <defs>
    <clipPath id="clip0_20_1976">
      <rect width="27.6258" height="28.8214" fill="white" transform="matrix(1 0 0 -1 0.913086 29.0286)"/>
    </clipPath>
  </defs>
</svg>