<svg xmlns="http://www.w3.org/2000/svg" width="24" height="29" viewBox="0 0 24 29" fill="none">
  <g clip-path="url(#clip0_20_2047)">
    <path d="M23.8952 6.30391C23.8764 7.52357 23.8201 8.71507 23.7263 9.87844C23.6513 11.023 23.5199 12.1489 23.3323 13.2559C23.1446 14.363 22.9101 15.4419 22.6286 16.4927C22.3284 17.5435 21.9531 18.5755 21.5028 19.5888C21.0712 20.6208 20.5552 21.5965 19.9548 22.5159C19.3731 23.4354 18.7211 24.2797 17.9986 25.049C17.2762 25.8184 16.4741 26.522 15.5922 27.16C14.7103 27.7792 13.7345 28.314 12.665 28.7643C12.5899 28.8206 12.5055 28.8581 12.4117 28.8769C12.3179 28.8956 12.2241 28.905 12.1302 28.905C12.0177 28.905 11.9144 28.891 11.8206 28.8628C11.7268 28.8347 11.633 28.8018 11.5392 28.7643C10.4509 28.2764 9.447 27.7041 8.52757 27.0474C7.60813 26.3719 6.77783 25.626 6.03666 24.8098C5.29548 23.9936 4.62467 23.0976 4.02423 22.1219C3.44255 21.1462 2.93592 20.1141 2.50435 19.0258C2.20413 18.3128 1.94144 17.5716 1.71627 16.8023C1.47234 16.033 1.26594 15.2449 1.09706 14.4381C0.928186 13.6312 0.787457 12.8056 0.674874 11.9612C0.581054 11.1169 0.515381 10.2631 0.477853 9.39996V9.34366C0.440325 8.27412 0.440325 7.20927 0.477853 6.14911C0.515381 5.08895 0.543527 4.03348 0.56229 2.9827C0.56229 2.96394 0.56229 2.94987 0.56229 2.94048C0.56229 2.9311 0.56229 2.91703 0.56229 2.89826C0.56229 2.72939 0.613891 2.57928 0.717093 2.44793C0.820294 2.31658 0.956332 2.23215 1.12521 2.19462C1.93205 1.8944 2.76705 1.61294 3.63019 1.35024C4.49333 1.10631 5.37992 0.895218 6.28997 0.716961C7.20002 0.538704 8.13352 0.393284 9.09048 0.280701C10.0287 0.168118 10.9856 0.102444 11.9614 0.0836792H11.9895C13.0215 0.102444 14.0254 0.158735 15.0011 0.252554C15.9956 0.365137 16.976 0.519939 17.9424 0.716961C18.9087 0.913982 19.8516 1.14384 20.771 1.40653C21.6904 1.68799 22.6005 2.00698 23.5012 2.36349L23.276 2.27905C23.3698 2.33535 23.4542 2.4104 23.5293 2.50422C23.6044 2.59804 23.6513 2.71062 23.67 2.84197C23.7263 3.49871 23.7685 4.13668 23.7967 4.75589C23.8248 5.3751 23.8577 5.89111 23.8952 6.30391ZM22.0939 6.4165C22.0939 6.17257 22.0798 5.8442 22.0516 5.43139C22.0235 5.01859 22.0094 4.58702 22.0094 4.13668C22.0094 4.13668 22.0094 4.13199 22.0094 4.12261C22.0094 4.11323 22.0094 4.09915 22.0094 4.08039C22.0094 3.94904 21.9625 3.83177 21.8687 3.72857C21.7749 3.62537 21.6717 3.56438 21.5591 3.54562H21.5309C21.0056 3.39551 20.4802 3.2454 19.9548 3.09529C19.4294 2.94517 18.904 2.79506 18.3786 2.64495C17.0464 2.3072 15.7141 2.08204 14.3819 1.96945C13.0684 1.85687 11.755 1.84749 10.4415 1.94131C9.12801 2.03512 7.82392 2.22276 6.52921 2.50422C5.2345 2.78568 3.93979 3.14219 2.64508 3.57376C2.55126 3.61129 2.47152 3.66758 2.40584 3.74264C2.34017 3.8177 2.29795 3.90213 2.27919 3.99595C2.18537 5.21561 2.14784 6.42588 2.1666 7.62677C2.18537 8.84642 2.26511 10.052 2.40584 11.2435C2.54657 12.435 2.74828 13.6218 3.01098 14.804C3.29244 15.9673 3.65833 17.1213 4.10867 18.2659C4.48395 19.2229 4.90613 20.1141 5.37523 20.9398C5.86309 21.7841 6.41663 22.5675 7.03584 23.2899C7.65504 24.0123 8.34931 24.6738 9.11863 25.2742C9.86918 25.8559 10.7042 26.3813 11.6236 26.8504C11.6987 26.8879 11.7784 26.9207 11.8628 26.9489C11.9473 26.977 12.0364 26.9911 12.1302 26.9911C12.2241 26.9911 12.3132 26.977 12.3976 26.9489C12.4821 26.9207 12.5618 26.8879 12.6369 26.8504C13.5 26.4188 14.2881 25.9216 15.0011 25.3587C15.7329 24.7957 16.399 24.1812 16.9995 23.5151C17.5999 22.849 18.1347 22.1313 18.6038 21.3619C19.0916 20.5739 19.5232 19.7482 19.8985 18.8851C20.3113 17.9094 20.6584 16.9243 20.9399 15.9298C21.2026 14.9353 21.4231 13.9221 21.6013 12.89C21.7796 11.858 21.9062 10.8072 21.9813 9.73771C22.0563 8.6494 22.0939 7.54233 22.0939 6.4165ZM8.52757 11.342C8.52757 10.948 8.52287 10.5586 8.51349 10.174C8.50411 9.78931 8.5088 9.40934 8.52757 9.03406C8.60262 8.09587 8.98259 7.30309 9.66747 6.65574C10.3524 6.00838 11.1639 5.6847 12.1021 5.6847C12.1396 5.6847 12.1725 5.6847 12.2006 5.6847C12.2287 5.6847 12.2616 5.6847 12.2991 5.6847H12.271C13.2467 5.72223 14.0676 6.09282 14.7337 6.79646C15.3998 7.50011 15.7329 8.33979 15.7329 9.31552C15.7329 9.31552 15.7329 9.32021 15.7329 9.32959C15.7329 9.33897 15.7329 9.34366 15.7329 9.34366C15.7517 9.62512 15.7564 9.91127 15.747 10.2021C15.7376 10.493 15.7423 10.7791 15.761 11.0606C15.7798 11.1544 15.8126 11.2341 15.8596 11.2998C15.9065 11.3655 15.9675 11.4171 16.0425 11.4546C16.324 11.5297 16.5538 11.6798 16.7321 11.9049C16.9103 12.1301 16.9995 12.3834 16.9995 12.6649C16.9995 12.7024 16.9995 12.7305 16.9995 12.7493C16.9995 12.7681 16.9901 12.7868 16.9713 12.8056C16.9901 14.2692 16.9901 15.7328 16.9713 17.1964C16.9901 17.2151 16.9995 17.2339 16.9995 17.2526C16.9995 17.2714 16.9995 17.2996 16.9995 17.3371C16.9995 17.6561 16.8822 17.9328 16.6476 18.1674C16.4131 18.4019 16.1269 18.5192 15.7892 18.5192C15.7704 18.5192 15.747 18.5192 15.7188 18.5192C15.6907 18.5192 15.6672 18.5192 15.6485 18.5192C13.303 18.538 10.9575 18.538 8.612 18.5192C8.59324 18.5192 8.56978 18.5192 8.54164 18.5192C8.51349 18.5192 8.49004 18.5192 8.47127 18.5192C8.13352 18.5192 7.84737 18.4019 7.61283 18.1674C7.37828 17.9328 7.261 17.6467 7.261 17.3089C7.261 17.2902 7.261 17.262 7.261 17.2245C7.261 17.187 7.261 17.1588 7.261 17.1401C7.261 16.4646 7.261 15.7891 7.261 15.1136C7.261 14.4381 7.261 13.7626 7.261 13.0871C7.261 12.5429 7.33606 12.1676 7.48617 11.9612C7.63628 11.7548 7.98341 11.5484 8.52757 11.342ZM14.6634 11.3983C14.6634 11.023 14.6634 10.6478 14.6634 10.2725C14.6634 9.8972 14.6634 9.5313 14.6634 9.17479C14.6258 8.53682 14.3866 7.98797 13.9456 7.52826C13.5047 7.06854 12.9652 6.81054 12.3273 6.75425C12.2897 6.75425 12.2522 6.75425 12.2147 6.75425C12.1771 6.75425 12.1396 6.75425 12.1021 6.75425C11.5016 6.75425 10.9809 6.9325 10.54 7.28902C10.099 7.64553 9.81289 8.10525 9.68155 8.66816C9.66278 8.91209 9.64871 9.16541 9.63933 9.4281C9.62994 9.6908 9.62525 9.95349 9.62525 10.2162C9.62525 10.4226 9.62525 10.629 9.62525 10.8354C9.62525 11.0418 9.63463 11.2482 9.6534 11.4546V11.3983H14.6634ZM12.4117 16.943C12.4117 16.6053 12.4117 16.2863 12.4117 15.9861C12.4117 15.6859 12.4211 15.3856 12.4398 15.0854C12.4398 14.9353 12.468 14.7993 12.5243 14.6773C12.5806 14.5553 12.6462 14.4381 12.7213 14.3255C12.7776 14.2504 12.8198 14.166 12.848 14.0722C12.8761 13.9783 12.8902 13.8845 12.8902 13.7907C12.8902 13.6781 12.8714 13.5702 12.8339 13.467C12.7964 13.3638 12.7401 13.2747 12.665 13.1996C12.5899 13.1434 12.5055 13.0964 12.4117 13.0589C12.3179 13.0214 12.2241 13.0026 12.1302 13.0026C12.0177 13.0026 11.9144 13.0214 11.8206 13.0589C11.7268 13.0964 11.6518 13.1434 11.5955 13.1996C11.5204 13.2747 11.4594 13.3638 11.4125 13.467C11.3656 13.5702 11.3421 13.6781 11.3421 13.7907C11.3421 13.9033 11.3609 14.0018 11.3984 14.0862C11.436 14.1707 11.4829 14.2504 11.5392 14.3255C11.6142 14.4193 11.6752 14.5272 11.7221 14.6492C11.769 14.7711 11.8019 14.8978 11.8206 15.0291C11.8394 15.3481 11.8441 15.6624 11.8347 15.972C11.8253 16.2816 11.8206 16.6053 11.8206 16.943H12.4117Z" fill="black"/>
  </g>
  <defs>
    <clipPath id="clip0_20_2047">
      <rect width="23.452" height="28.8214" fill="white" transform="matrix(1 0 0 -1 0.446777 28.905)"/>
    </clipPath>
  </defs>
</svg>