<svg xmlns="http://www.w3.org/2000/svg" width="52" height="30" viewBox="0 0 52 30" fill="none">
  <g clip-path="url(#clip0_20_1948)">
    <path d="M6.66363 16.926V26.9741H44.9983V16.926H6.66363ZM51.0496 10.5651C51.0684 10.5463 51.0825 10.5228 51.0918 10.4947C51.1012 10.4666 51.1059 10.4431 51.1059 10.4243C51.1059 8.3603 51.1059 6.29628 51.1059 4.23225C51.1059 2.91877 50.7682 1.9196 50.0927 1.23471C49.4172 0.549831 48.4227 0.20739 47.1092 0.20739C40.5606 0.20739 34.0214 0.20739 27.4916 0.20739C27.3977 0.20739 27.2945 0.212082 27.1819 0.221464C27.0694 0.230846 26.9568 0.235537 26.8442 0.235537V15.3217H45.0264C44.9889 14.5149 45.0358 13.7315 45.1671 12.9715C45.2985 12.2116 45.7301 11.5689 46.4619 11.0435C47.1749 10.5182 47.9207 10.2695 48.6995 10.2977C49.4782 10.3258 50.2615 10.415 51.0496 10.5651ZM24.7896 0.235537C24.6957 0.235537 24.616 0.230846 24.5503 0.221464C24.4846 0.212082 24.4237 0.20739 24.3674 0.20739C22.6599 0.20739 20.9617 0.20739 19.273 0.20739C17.5842 0.20739 15.8908 0.20739 14.1926 0.20739C12.4945 0.20739 10.7917 0.20739 9.08417 0.20739C7.39542 0.20739 5.70667 0.216772 4.01792 0.235537C4.01792 0.235537 4.01323 0.235537 4.00384 0.235537C3.99446 0.235537 3.98977 0.235537 3.98977 0.235537C3.03281 0.235537 2.21658 0.573286 1.54108 1.24879C0.865582 1.92429 0.527832 2.73113 0.527832 3.66933C0.527832 3.68809 0.527832 3.70217 0.527832 3.71155C0.527832 3.72093 0.527832 3.72562 0.527832 3.72562C0.527832 4.51371 0.527832 5.30179 0.527832 6.08987C0.527832 6.87796 0.527832 7.66604 0.527832 8.45412V10.5932C1.35344 10.4243 2.1556 10.3258 2.9343 10.2977C3.713 10.2695 4.45887 10.5088 5.1719 11.0154C5.90369 11.5595 6.33526 12.2116 6.46661 12.9715C6.59795 13.7315 6.64486 14.5149 6.60734 15.3217H24.7896V0.235537ZM4.58083 20.6976C4.58083 19.5905 4.58083 18.474 4.58083 17.3482C4.58083 16.2224 4.58083 15.0965 4.58083 13.9707C4.58083 13.9519 4.58083 13.9332 4.58083 13.9144C4.58083 13.8957 4.58083 13.8769 4.58083 13.8581C4.58083 13.4266 4.43072 13.0654 4.1305 12.7745C3.83028 12.4837 3.47376 12.3383 3.06096 12.3383C3.04219 12.3383 3.01874 12.3383 2.99059 12.3383C2.96245 12.3383 2.93899 12.3383 2.92023 12.3383C2.78888 12.3383 2.65284 12.3383 2.51211 12.3383C2.37139 12.3383 2.23535 12.3383 2.104 12.3383C2.08524 12.3383 2.07116 12.3383 2.06178 12.3383C2.0524 12.3383 2.04771 12.3383 2.04771 12.3383C1.6349 12.3383 1.27839 12.4837 0.978166 12.7745C0.677943 13.0654 0.527832 13.4266 0.527832 13.8581C0.527832 18.4178 0.537214 22.9774 0.555978 27.537C0.555978 27.537 0.555978 27.5417 0.555978 27.5511C0.555978 27.5605 0.555978 27.5652 0.555978 27.5652C0.555978 27.978 0.696707 28.3251 0.978166 28.6066C1.25962 28.888 1.59737 29.0287 1.99142 29.0287C2.01018 29.0287 2.02425 29.0287 2.03363 29.0287C2.04302 29.0287 2.04771 29.0287 2.04771 29.0287C2.17906 29.0287 2.31509 29.0287 2.45582 29.0287C2.59655 29.0287 2.73259 29.0287 2.86394 29.0287C2.90147 29.0287 2.9343 29.0334 2.96245 29.0428C2.99059 29.0522 3.02343 29.0569 3.06096 29.0569C3.47376 29.0569 3.83028 28.9068 4.1305 28.6066C4.43072 28.3063 4.58083 27.9404 4.58083 27.5089C4.58083 27.4713 4.58083 27.4338 4.58083 27.3963C4.58083 27.3588 4.58083 27.3306 4.58083 27.3118C4.58083 25.0977 4.58083 22.8929 4.58083 20.6976ZM51.1059 20.6413C51.1059 19.5342 51.1059 18.4271 51.1059 17.3201C51.1059 16.213 51.1059 15.1059 51.1059 13.9989C51.1059 13.9801 51.1106 13.9566 51.12 13.9285C51.1294 13.9003 51.1341 13.8769 51.1341 13.8581C51.1341 13.4453 50.984 13.0888 50.6837 12.7886C50.3835 12.4884 50.0176 12.3383 49.586 12.3383C49.5673 12.3383 49.5485 12.3383 49.5298 12.3383C49.511 12.3383 49.4922 12.3383 49.4735 12.3383C49.3796 12.3383 49.2905 12.3383 49.2061 12.3383C49.1216 12.3383 49.0325 12.3383 48.9387 12.3383C48.282 12.3383 47.8082 12.4837 47.5173 12.7745C47.2265 13.0654 47.0811 13.5391 47.0811 14.1959V16.4757C47.0811 17.3951 47.0811 18.3052 47.0811 19.2058C47.0811 20.1065 47.0811 21.0119 47.0811 21.9219C47.0811 22.832 47.0811 23.7467 47.0811 24.6661C47.0811 25.5668 47.0811 26.4675 47.0811 27.3681C47.0811 27.4057 47.0811 27.4385 47.0811 27.4666C47.0811 27.4948 47.0811 27.5182 47.0811 27.537C47.0811 27.9498 47.2265 28.3016 47.5173 28.5925C47.8082 28.8833 48.16 29.0287 48.5728 29.0287C48.5916 29.0287 48.615 29.0287 48.6432 29.0287C48.6713 29.0287 48.6948 29.0287 48.7135 29.0287C48.8073 29.0287 48.9105 29.0287 49.0231 29.0287C49.1357 29.0287 49.2389 29.0287 49.3327 29.0287C49.3703 29.0287 49.4125 29.0287 49.4594 29.0287C49.5063 29.0287 49.5485 29.0287 49.586 29.0287C50.0176 29.0287 50.3835 28.8786 50.6837 28.5784C50.984 28.2782 51.1341 27.9123 51.1341 27.4807C51.1341 27.4432 51.1341 27.401 51.1341 27.3541C51.1341 27.3072 51.1247 27.2649 51.1059 27.2274C51.1059 25.032 51.1059 22.8367 51.1059 20.6413Z" fill="black"/>
  </g>
  <defs>
    <clipPath id="clip0_20_1948">
      <rect width="50.5868" height="28.8214" fill="white" transform="matrix(1 0 0 -1 0.523926 29.0286)"/>
    </clipPath>
  </defs>
</svg>