<svg xmlns="http://www.w3.org/2000/svg" width="27" height="29" viewBox="0 0 27 29" fill="none">
  <g clip-path="url(#clip0_20_2005)">
    <path d="M24.9266 9.42828C24.8703 9.95367 24.7389 10.4415 24.5325 10.8919C24.3261 11.3422 24.0634 11.7456 23.7444 12.1021C23.9321 12.5337 24.0822 13.0028 24.1948 13.5094C24.3073 14.0161 24.3824 14.5321 24.4199 15.0574V15.0856C24.2886 15.0293 24.1572 14.973 24.0259 14.9167C23.8945 14.8604 23.7538 14.8041 23.6037 14.7478C23.3035 14.6165 22.9845 14.518 22.6467 14.4523C22.309 14.3866 21.9619 14.3538 21.6053 14.3538C21.3426 14.3538 21.0846 14.3726 20.8313 14.4101C20.578 14.4476 20.3294 14.5039 20.0855 14.579H20.1136C19.6445 14.6916 19.1707 14.8276 18.6922 14.9871C18.2138 15.1466 17.74 15.292 17.2709 15.4233C16.7643 15.5922 16.2201 15.7236 15.6384 15.8174C15.0567 15.9112 14.4563 15.9581 13.8371 15.9581C13.7245 15.9581 13.6025 15.9534 13.4712 15.944C13.3398 15.9347 13.2179 15.93 13.1053 15.93H13.1334C12.5705 15.8737 12.0311 15.7892 11.5151 15.6767C10.999 15.5641 10.4971 15.414 10.0093 15.2263L10.0655 15.2545C9.65274 15.1044 9.23524 14.9589 8.81305 14.8182C8.39087 14.6775 7.96399 14.5508 7.53242 14.4382C7.34478 14.4007 7.14776 14.3679 6.94135 14.3397C6.73495 14.3116 6.52855 14.2975 6.32215 14.2975C5.90934 14.2975 5.50123 14.3444 5.0978 14.4382C4.69438 14.5321 4.32379 14.6728 3.98604 14.8604L4.01419 14.8323C3.88284 14.8886 3.75618 14.9449 3.63422 15.0012C3.51225 15.0574 3.39498 15.1137 3.28239 15.17C3.35745 14.2506 3.53571 13.3781 3.81717 12.5525C4.09862 11.7081 4.4739 10.9247 4.943 10.2023C5.4121 9.47988 5.96563 8.82783 6.6036 8.24615C7.22281 7.64571 7.9077 7.13908 8.65825 6.72628L8.71454 6.69813C8.71454 6.67937 8.71454 6.66529 8.71454 6.65591C8.71454 6.64653 8.71454 6.63246 8.71454 6.61369C8.71454 6.16336 8.75207 5.71772 8.82713 5.27676C8.90218 4.83581 9.01477 4.40893 9.16488 3.99613L9.13673 4.05242C7.93584 4.52152 6.82877 5.15949 5.81552 5.96634C4.82103 6.77319 3.96259 7.69731 3.24018 8.7387C2.51777 9.7801 1.95954 10.92 1.5655 12.1584C1.15269 13.3968 0.946289 14.6916 0.946289 16.0426C0.946289 17.8251 1.28404 19.4951 1.95954 21.0525C2.63504 22.6287 3.55916 23.9984 4.73191 25.1618C5.90465 26.3252 7.26972 27.2446 8.82713 27.9201C10.4033 28.5956 12.0733 28.9333 13.8371 28.9333C15.6197 28.9333 17.299 28.5956 18.8752 27.9201C20.4326 27.2446 21.793 26.3252 22.9563 25.1618C24.1197 23.9984 25.0391 22.6287 25.7146 21.0525C26.3901 19.4951 26.7279 17.8251 26.7279 16.0426C26.7279 14.8229 26.5684 13.6502 26.2494 12.5243C25.9304 11.3985 25.4801 10.3477 24.8984 9.37198L24.9266 9.42828ZM22.3653 6.81071C22.1589 6.62307 21.929 6.46358 21.6757 6.33223C21.4224 6.20089 21.1456 6.11645 20.8454 6.07892V6.05078C20.7891 6.05078 20.7234 6.04608 20.6484 6.0367C20.5733 6.02732 20.4983 6.02263 20.4232 6.02263C20.123 6.02263 19.8275 6.07423 19.5366 6.17743C19.2458 6.28063 18.9878 6.41667 18.7626 6.58555C18.7814 6.51049 18.7908 6.43543 18.7908 6.36038C18.7908 6.28532 18.7908 6.21027 18.7908 6.13521C18.7908 5.92881 18.7767 5.73179 18.7485 5.54415C18.7204 5.35651 18.6782 5.16887 18.6219 4.98123L18.65 5.00938C18.4999 4.48399 18.2607 4.01489 17.9323 3.60209C17.6039 3.18928 17.2146 2.85153 16.7643 2.58884V2.56069C16.464 2.37305 16.131 2.22763 15.7651 2.12443C15.3992 2.02123 15.0192 1.96963 14.6252 1.96963C13.4618 1.96963 12.472 2.37774 11.6558 3.19397C10.8396 4.0102 10.4314 5 10.4314 6.16336C10.4314 7.30796 10.8396 8.28837 11.6558 9.1046C12.472 9.92083 13.4618 10.3289 14.6252 10.3289C15.2256 10.3289 15.7838 10.2117 16.2998 9.97712C16.8159 9.74257 17.2709 9.42828 17.6649 9.03424C17.7212 9.74726 18.0121 10.3524 18.5374 10.8496C19.0628 11.3469 19.6914 11.5955 20.4232 11.5955C21.1925 11.5955 21.8493 11.3234 22.3934 10.7793C22.9376 10.2351 23.2097 9.57839 23.2097 8.80907C23.2097 8.41503 23.1346 8.04913 22.9845 7.71138C22.8344 7.37363 22.628 7.07341 22.3653 6.81071ZM17.0176 5.62859C16.9988 5.62859 16.98 5.63328 16.9613 5.64266C16.9425 5.65204 16.9237 5.65673 16.905 5.65673C16.8299 5.65673 16.7596 5.63328 16.6939 5.58637C16.6282 5.53946 16.586 5.47848 16.5672 5.40342C16.4547 5.08443 16.2717 4.81236 16.0184 4.58719C15.7651 4.36202 15.4789 4.21191 15.1599 4.13686H15.1318C15.0567 4.11809 14.977 4.09933 14.8926 4.08057C14.8081 4.0618 14.719 4.05242 14.6252 4.05242C14.4938 4.05242 14.3672 4.06649 14.2452 4.09464C14.1232 4.12279 14.0153 4.15562 13.9215 4.19315C13.9028 4.19315 13.8793 4.19784 13.8512 4.20722C13.823 4.2166 13.7996 4.22129 13.7808 4.22129C13.7245 4.22129 13.6682 4.20722 13.6119 4.17908C13.5556 4.15093 13.5087 4.10871 13.4712 4.05242C13.4524 4.03366 13.4384 4.00551 13.429 3.96798C13.4196 3.93045 13.4149 3.90231 13.4149 3.88354C13.4149 3.80849 13.4337 3.74282 13.4712 3.68652C13.5087 3.63023 13.565 3.58332 13.6401 3.5458C13.6588 3.5458 13.6776 3.5411 13.6964 3.53172C13.7151 3.52234 13.7245 3.51765 13.7245 3.51765C13.8559 3.46136 13.9966 3.42383 14.1467 3.40507C14.2968 3.3863 14.4563 3.37692 14.6252 3.37692C15.1506 3.37692 15.629 3.50827 16.0606 3.77096C16.4922 4.03366 16.8299 4.38079 17.0739 4.81236V4.8405C17.0926 4.87803 17.1161 4.92494 17.1442 4.98123C17.1724 5.03753 17.1958 5.09382 17.2146 5.15011C17.2334 5.18764 17.2427 5.21578 17.2427 5.23455C17.2427 5.25331 17.2427 5.28146 17.2427 5.31898C17.2427 5.39404 17.224 5.45971 17.1864 5.516C17.1489 5.5723 17.0926 5.60982 17.0176 5.62859ZM21.549 8.78092C21.5303 8.78092 21.5068 8.78561 21.4787 8.795C21.4505 8.80438 21.4271 8.80907 21.4083 8.80907C21.3333 8.80907 21.2676 8.7903 21.2113 8.75278C21.155 8.71525 21.1175 8.65896 21.0987 8.5839C21.0424 8.45255 20.9533 8.34466 20.8313 8.26023C20.7094 8.17579 20.5733 8.13357 20.4232 8.13357C20.4045 8.13357 20.3857 8.13357 20.3669 8.13357C20.3482 8.13357 20.3294 8.13357 20.3106 8.13357C20.2919 8.13357 20.2731 8.13826 20.2543 8.14764C20.2356 8.15702 20.2168 8.16171 20.198 8.16171C20.1793 8.18048 20.1605 8.18986 20.1418 8.18986C20.123 8.18986 20.1042 8.18986 20.0855 8.18986C19.9729 8.18986 19.8838 8.15702 19.8181 8.09135C19.7524 8.02567 19.7196 7.94593 19.7196 7.85211C19.7196 7.75829 19.743 7.68324 19.7899 7.62694C19.8368 7.57065 19.8978 7.53312 19.9729 7.51436L20.001 7.48621C20.0761 7.46745 20.1464 7.45338 20.2121 7.44399C20.2778 7.43461 20.3575 7.42992 20.4514 7.42992C20.7328 7.42992 20.9908 7.51436 21.2254 7.68324C21.4599 7.85211 21.6335 8.05851 21.7461 8.30244V8.33059C21.7461 8.34935 21.7508 8.36812 21.7601 8.38688C21.7695 8.40565 21.7742 8.42441 21.7742 8.44317C21.7742 8.51823 21.7508 8.58859 21.7039 8.65427C21.6569 8.71994 21.6053 8.76216 21.549 8.78092ZM22.7593 1.54744C22.5904 1.11587 22.3137 0.764048 21.929 0.49197C21.5444 0.219894 21.1081 0.0838547 20.6202 0.0838547C20.001 0.0838547 19.4709 0.304331 19.03 0.745283C18.589 1.18624 18.3686 1.71631 18.3686 2.33552C18.3686 2.9735 18.589 3.51296 19.03 3.95391C19.4709 4.39486 20.001 4.61534 20.6202 4.61534C20.7703 4.61534 20.9111 4.60126 21.0424 4.57312C21.1738 4.54497 21.3051 4.50275 21.4365 4.44646V4.47461C21.868 4.30573 22.2199 4.02896 22.4919 3.64431C22.764 3.25965 22.9001 2.82339 22.9001 2.33552C22.9001 2.20418 22.886 2.06814 22.8578 1.92741C22.8297 1.78668 22.7968 1.66002 22.7593 1.54744ZM21.7179 2.22294C21.6992 2.22294 21.6757 2.22294 21.6476 2.22294C21.6194 2.22294 21.596 2.22294 21.5772 2.22294C21.5021 2.22294 21.4365 2.20418 21.3802 2.16665C21.3239 2.12912 21.2864 2.08221 21.2676 2.02592C21.2113 1.87581 21.1222 1.75853 21.0002 1.6741C20.8782 1.58966 20.7422 1.54744 20.5921 1.54744C20.5733 1.54744 20.5546 1.55213 20.5358 1.56151C20.517 1.57089 20.4983 1.57559 20.4795 1.57559C20.4607 1.57559 20.442 1.58028 20.4232 1.58966C20.4045 1.59904 20.3857 1.60373 20.3669 1.60373C20.3482 1.60373 20.3294 1.60842 20.3106 1.6178C20.2919 1.62719 20.2637 1.63188 20.2262 1.63188C20.1324 1.63188 20.0526 1.59435 19.987 1.51929C19.9213 1.44424 19.8884 1.3598 19.8884 1.26598C19.8884 1.19093 19.9119 1.12056 19.9588 1.05489C20.0057 0.989214 20.0667 0.946995 20.1418 0.92823H20.1699C20.2262 0.909468 20.2919 0.895393 20.3669 0.886013C20.442 0.876631 20.517 0.871939 20.5921 0.871939C20.8923 0.871939 21.1597 0.951685 21.3942 1.11118C21.6288 1.27067 21.793 1.48177 21.8868 1.74446H21.9149C21.9149 1.76322 21.9149 1.78668 21.9149 1.81483C21.9149 1.84297 21.9149 1.86643 21.9149 1.88519C21.9149 1.96025 21.8962 2.02592 21.8587 2.08221C21.8211 2.1385 21.7742 2.18541 21.7179 2.22294Z" fill="black"/>
  </g>
  <defs>
    <clipPath id="clip0_20_2005">
      <rect width="25.7684" height="28.8214" fill="white" transform="matrix(1 0 0 -1 0.938477 28.905)"/>
    </clipPath>
  </defs>
</svg>