<svg xmlns="http://www.w3.org/2000/svg" width="36" height="30" viewBox="0 0 36 30" fill="none">
  <g clip-path="url(#clip0_20_1990)">
    <path d="M2.35851 5.94897C3.33423 5.14212 4.37563 4.40564 5.4827 3.73952C6.58977 3.0734 7.75313 2.49641 8.97278 2.00855L9.14166 1.92411C9.81716 1.66142 10.5208 1.41749 11.2526 1.19232C11.9844 0.985916 12.7349 0.807659 13.5043 0.657547C14.2736 0.507437 15.0617 0.394854 15.8685 0.319798C16.6754 0.244741 17.4916 0.207214 18.3172 0.207214C19.7057 0.207214 21.0661 0.319798 22.3984 0.544964C23.7306 0.751368 25.0253 1.06566 26.2825 1.48785C27.5397 1.91004 28.7499 2.42135 29.9133 3.0218C31.0579 3.62224 32.1556 4.30713 33.2064 5.07645L33.1501 5.02015C33.1688 5.03892 33.1876 5.05299 33.2064 5.06237C33.2251 5.07175 33.2533 5.08583 33.2908 5.10459C33.3658 5.21718 33.3705 5.30161 33.3049 5.3579C33.2392 5.4142 33.1782 5.46111 33.1219 5.49863C32.878 5.76133 32.6294 6.00995 32.3761 6.2445C32.1227 6.47905 31.8741 6.72767 31.6302 6.99036C31.4988 7.12171 31.3816 7.18269 31.2784 7.17331C31.1752 7.16393 31.0579 7.11233 30.9265 7.01851C30.4387 6.66199 29.9133 6.31956 29.3504 5.99119C28.7875 5.66282 28.2058 5.36729 27.6053 5.10459L27.4928 5.07645C27.4177 5.00139 27.3333 4.9451 27.2394 4.90757C27.1456 4.87004 27.0424 4.8419 26.9298 4.82313L26.6765 4.71055C26.6202 4.67302 26.5686 4.64488 26.5217 4.62611C26.4748 4.60735 26.4138 4.59797 26.3388 4.59797L26.0855 4.48538C25.3724 4.18516 24.6078 3.92716 23.7916 3.71137C22.9753 3.49559 22.1263 3.34079 21.2444 3.24697H21.1599C20.7284 3.19067 20.2733 3.14376 19.7949 3.10624C19.3164 3.06871 18.8238 3.04995 18.3172 3.04995C17.1726 3.04995 16.0608 3.13907 14.9819 3.31733C13.903 3.49559 12.8569 3.74421 11.8437 4.0632L11.9844 4.03505C11.7405 4.09134 11.5059 4.15701 11.2807 4.23207C11.0556 4.30713 10.8398 4.39156 10.6334 4.48538L10.6897 4.45724C10.6897 4.45724 10.685 4.45724 10.6756 4.45724C10.6662 4.45724 10.6615 4.45724 10.6615 4.45724C10.6052 4.45724 10.5489 4.47131 10.4927 4.49946C10.4364 4.5276 10.3895 4.56044 10.3519 4.59797L10.0986 4.6824C10.0236 4.6824 9.95789 4.69648 9.9016 4.72462C9.8453 4.75277 9.79839 4.78561 9.76087 4.82313L9.28239 5.0483C9.20733 5.0483 9.14166 5.06237 9.08537 5.09052C9.02907 5.11867 8.98216 5.1515 8.94464 5.18903C7.8188 5.71442 6.77272 6.30548 5.80637 6.96222C4.84003 7.61896 3.94406 8.35075 3.11845 9.15759C2.9871 9.3077 2.85575 9.39214 2.7244 9.41091C2.59306 9.42967 2.48047 9.364 2.38665 9.21389C2.18025 8.93243 1.94101 8.68381 1.66894 8.46802C1.39686 8.25224 1.14824 8.00361 0.92307 7.72216C0.810487 7.59081 0.763577 7.48761 0.782341 7.41255C0.801105 7.3375 0.857397 7.26244 0.951216 7.18739C1.19515 6.98098 1.4297 6.77458 1.65486 6.56818C1.88003 6.36177 2.11458 6.15537 2.35851 5.94897ZM22.9331 23.709C22.6704 22.9397 22.2482 22.2783 21.6666 21.7247C21.0849 21.1712 20.4188 20.7818 19.6682 20.5567H19.6119C20.081 20.05 20.5501 19.534 21.0192 19.0086C21.4883 18.4833 21.9762 17.9766 22.4828 17.4888C23.421 16.5506 24.3686 15.6218 25.3255 14.7023C26.2825 13.7641 27.2347 12.8353 28.1823 11.9159C29.1299 10.9965 30.0822 10.077 31.0391 9.15759C31.9961 8.2194 32.9437 7.29059 33.8819 6.37115C34.0507 6.22104 34.1915 6.13661 34.304 6.11784C34.4166 6.09908 34.5574 6.17414 34.7262 6.34301C35.2516 6.83087 35.5284 7.15924 35.5565 7.32811C35.5847 7.49699 35.3736 7.87227 34.9233 8.45395C31.0204 13.4451 27.1175 18.427 23.2146 23.3994C23.1771 23.4557 23.1395 23.5026 23.102 23.5401C23.0645 23.5777 23.0082 23.6339 22.9331 23.709ZM18.092 10.1146C17.1163 10.1333 16.1687 10.2365 15.2493 10.4242C14.3299 10.6118 13.448 10.8839 12.6036 11.2404C11.7592 11.5969 10.9524 12.0285 10.1831 12.5351C9.41373 13.023 8.71009 13.5859 8.07211 14.2238V14.1957C7.922 14.3458 7.80004 14.4162 7.70622 14.4068C7.6124 14.3974 7.5092 14.327 7.39662 14.1957C7.17145 13.9518 6.94159 13.7125 6.70704 13.478C6.47249 13.2434 6.22387 13.0136 5.96118 12.7884C5.82983 12.6571 5.76885 12.5445 5.77823 12.4507C5.78761 12.3568 5.85798 12.2536 5.98932 12.1411C6.79617 11.3717 7.66869 10.6869 8.60689 10.0864C9.54508 9.48596 10.5396 8.97465 11.5903 8.55246C12.6411 8.13027 13.7294 7.80659 14.8553 7.58143C15.9999 7.3375 17.1726 7.21553 18.3735 7.21553C19.2366 7.21553 20.081 7.2812 20.9066 7.41255C21.751 7.52514 22.5672 7.6987 23.3553 7.93325C24.1434 8.1678 24.9127 8.44457 25.6633 8.76355C26.4138 9.1013 27.1269 9.47658 27.8024 9.88939L27.7179 9.86124C27.9618 9.99259 28.0979 10.1099 28.126 10.2131C28.1542 10.3163 28.0557 10.4617 27.8305 10.6493C27.5678 10.8557 27.3239 11.0715 27.0987 11.2967C26.8735 11.5218 26.6578 11.747 26.4514 11.9722L26.4232 12.0003C26.3106 12.1317 26.2027 12.1973 26.0995 12.1973C25.9963 12.1973 25.8791 12.1504 25.7477 12.0566C24.6594 11.4562 23.4867 10.9824 22.2295 10.6353C20.9723 10.2881 19.6588 10.1146 18.2891 10.1146C18.2515 10.1146 18.2187 10.1146 18.1905 10.1146C18.1624 10.1146 18.1296 10.1146 18.092 10.1146ZM22.2013 25.2007C22.2013 26.2515 21.8261 27.1522 21.0755 27.9027C20.3249 28.6533 19.4149 29.0286 18.3454 29.0286C17.2758 29.0286 16.3658 28.6533 15.6152 27.9027C14.8646 27.1522 14.4894 26.2421 14.4894 25.1726C14.4894 24.103 14.8646 23.193 15.6152 22.4424C16.3658 21.6919 17.2758 21.3166 18.3454 21.3166C18.3641 21.3166 18.3782 21.3166 18.3876 21.3166C18.3969 21.3166 18.4016 21.3166 18.4016 21.3166C19.4524 21.3354 20.3484 21.72 21.0896 22.4706C21.8307 23.2211 22.2013 24.1218 22.2013 25.1726C22.2013 25.1726 22.2013 25.182 22.2013 25.2007ZM22.9331 15.4623C22.8768 15.481 22.8299 15.5045 22.7924 15.5326C22.7549 15.5608 22.7173 15.5936 22.6798 15.6311C22.3984 15.8938 22.1122 16.1612 21.8214 16.4333C21.5305 16.7054 21.2538 16.9821 20.9911 17.2636C20.9348 17.3199 20.8691 17.3668 20.794 17.4043C20.719 17.4419 20.6345 17.4606 20.5407 17.4606C20.5032 17.4606 20.4657 17.4559 20.4281 17.4465C20.3906 17.4372 20.3531 17.4231 20.3156 17.4043V17.4325C20.0153 17.3387 19.6964 17.2683 19.3586 17.2214C19.0208 17.1745 18.6737 17.151 18.3172 17.151C17.304 17.151 16.347 17.334 15.4463 17.6999C14.5457 18.0658 13.7388 18.5677 13.0258 19.2057H13.0539C12.9226 19.3182 12.81 19.3792 12.7162 19.3886C12.6224 19.398 12.5098 19.337 12.3784 19.2057C12.1533 18.943 11.9187 18.6897 11.6748 18.4457C11.4309 18.2018 11.1869 17.9672 10.943 17.7421C10.8304 17.6295 10.7694 17.531 10.76 17.4465C10.7507 17.3621 10.8116 17.2636 10.943 17.151C11.9 16.2503 13.0117 15.542 14.2783 15.026C15.5448 14.51 16.8911 14.252 18.3172 14.252C19.0678 14.252 19.7996 14.327 20.5126 14.4772C21.2256 14.6273 21.9011 14.8431 22.5391 15.1245L22.4828 15.0964C22.5578 15.1151 22.6376 15.1433 22.722 15.1808C22.8065 15.2183 22.8768 15.3122 22.9331 15.4623Z" fill="black"/>
  </g>
  <defs>
    <clipPath id="clip0_20_1990">
      <rect width="34.7884" height="28.8214" fill="white" transform="matrix(1 0 0 -1 0.77832 29.0286)"/>
    </clipPath>
  </defs>
</svg>